HIERARCHY
ROOT Hips
{
	OFFSET 0.000000 0.000000 0.000000
	CHANNELS 6 Xposition Yposition Zposition Xrotation Yrotation Zrotation
	JOINT LeftUpLeg_virtual
	{
		OFFSET 0.000000 0.000000 0.000000
		CHANNELS 3 Xrotation Yrotation Zrotation
		JOINT LeftUpLeg
		{
			OFFSET 10.205400 -3.823500 0.155100
			CHANNELS 3 Xrotation Yrotation Zrotation
			JOINT LeftLeg
			{
				OFFSET 0.708757 -12.982077 0.567790
				CHANNELS 3 Xrotation Yrotation Zrotation
				JOINT LeftFoot
				{
					OFFSET -0.708756 -10.717838 -2.184338
					CHANNELS 3 Xrotation Yrotation Zrotation
					JOINT LeftToeBase
					{
						OFFSET 0.108149 -7.191104 7.560241
						CHANNELS 3 Xrotation Yrotation Zrotation
						JOINT LeftToe_End
						{
							OFFSET 0.070230 0.081724 4.490308
							CHANNELS 3 Xrotation Yrotation Zrotation
							End Site
							{
								OFFSET 0 0 0
							}
						}
					}
				}
			}
		}
	}
	JOINT RightUpLeg_virtual
	{
		OFFSET 0.000000 0.000000 0.000000
		CHANNELS 3 Xrotation Yrotation Zrotation
		JOINT RightUpLeg
		{
			OFFSET -10.205400 -3.823500 0.005500
			CHANNELS 3 Xrotation Yrotation Zrotation
			JOINT RightLeg
			{
				OFFSET -0.708756 -12.982134 0.610632
				CHANNELS 3 Xrotation Yrotation Zrotation
				JOINT RightFoot
				{
					OFFSET 0.708754 -10.717769 -1.945823
					CHANNELS 3 Xrotation Yrotation Zrotation
					JOINT RightToeBase
					{
						OFFSET -0.108140 -7.191069 7.372968
						CHANNELS 3 Xrotation Yrotation Zrotation
						JOINT RightToe_End
						{
							OFFSET -0.070227 0.081735 4.479403
							CHANNELS 3 Xrotation Yrotation Zrotation
							End Site
							{
								OFFSET 0 0 0
							}
						}
					}
				}
			}
		}
	}
	JOINT Spine_virtual
	{
		OFFSET 0.000000 0.000000 0.000000
		CHANNELS 3 Xrotation Yrotation Zrotation
		JOINT Spine
		{
			OFFSET 0.000000 6.876099 0.125700
			CHANNELS 3 Xrotation Yrotation Zrotation
			JOINT Spine1
			{
				OFFSET 0.000000 5.730043 0.104720
				CHANNELS 3 Xrotation Yrotation Zrotation
				JOINT Spine1_split
				{
					OFFSET 0.000000 5.730043 0.104720
					CHANNELS 3 Xrotation Yrotation Zrotation
					JOINT Spine2
					{
						OFFSET 0.000000 5.730043 0.104720
						CHANNELS 3 Xrotation Yrotation Zrotation
						JOINT Neck_virtual
						{
							OFFSET 0.000000 0.000000 0.000000
							CHANNELS 3 Xrotation Yrotation Zrotation
							JOINT Neck
							{
								OFFSET 0.000000 10.314075 0.188496
								CHANNELS 3 Xrotation Yrotation Zrotation
								JOINT Head
								{
									OFFSET 0.000000 7.643700 -2.377400
									CHANNELS 3 Xrotation Yrotation Zrotation
									JOINT HeadTop_End
									{
										OFFSET 0.000000 43.788605 -13.619600
										CHANNELS 3 Xrotation Yrotation Zrotation
										End Site
										{
											OFFSET 0 0 0
										}
									}
								}
							}
						}
						JOINT LeftShoulder_virtual
						{
							OFFSET 0.000000 0.000000 0.000000
							CHANNELS 3 Xrotation Yrotation Zrotation
							JOINT LeftShoulder
							{
								OFFSET 2.196100 4.412489 0.087492
								CHANNELS 3 Xrotation Yrotation Zrotation
								JOINT LeftShoulder_split
								{
									OFFSET 2.196100 4.412489 0.087492
									CHANNELS 3 Xrotation Yrotation Zrotation
									JOINT LeftArm
									{
										OFFSET 8.771219 -2.981674 -0.026999
										CHANNELS 3 Xrotation Yrotation Zrotation
										JOINT LeftForeArm
										{
											OFFSET 8.512804 0.000000 -0.000000
											CHANNELS 3 Xrotation Yrotation Zrotation
											JOINT LeftHand
											{
												OFFSET 18.484802 0.000000 -0.000000
												CHANNELS 3 Xrotation Yrotation Zrotation
												End Site
												{
													OFFSET 0 0 0
												}
											}
										}
									}
								}
							}
						}
						JOINT RightShoulder_virtual
						{
							OFFSET 0.000000 0.000000 0.000000
							CHANNELS 3 Xrotation Yrotation Zrotation
							JOINT RightShoulder
							{
								OFFSET -2.196100 4.412496 0.070690
								CHANNELS 3 Xrotation Yrotation Zrotation
								JOINT RightShoulder_split
								{
									OFFSET -2.196100 4.412496 0.070690
									CHANNELS 3 Xrotation Yrotation Zrotation
									JOINT RightArm
									{
										OFFSET -8.771282 -2.981682 -0.094208
										CHANNELS 3 Xrotation Yrotation Zrotation
										JOINT RightForeArm
										{
											OFFSET -8.494598 0.000000 0.000000
											CHANNELS 3 Xrotation Yrotation Zrotation
											JOINT RightHand
											{
												OFFSET -18.483803 0.000000 0.000001
												CHANNELS 3 Xrotation Yrotation Zrotation
												End Site
												{
													OFFSET 0 0 0
												}
											}
										}
									}
								}
							}
						}
					}
				}
			}
		}
	}
}
MOTION
Frames: 11
Frame Time: 0.03333333
-10.621866 34.345787 -1.761118 0.000000 0.000000 0.000000 177.843345 -71.268366 179.053395 -106.298938 -11.005404 4.262314 73.241785 -17.527382 -1.015712 54.529515 -13.449859 -29.169607 -10.830971 0.047510 -6.517309 0.000000 0.000000 0.000000 177.507587 -68.171415 178.431083 -20.389406 34.570535 -2.003930 32.658720 7.234533 7.067790 -21.154342 -8.239164 6.624538 -0.355733 18.222451 13.980778 0.000000 0.000000 0.000000 -178.190237 -70.911816 -176.786019 13.250692 9.511051 1.235182 10.658897 -0.094813 -5.754638 0.293711 -0.405799 0.053026 0.000000 0.000000 0.000000 9.606243 1.993832 -5.125492 -5.591016 47.569764 17.895712 -23.762903 -35.714724 -14.238976 0.000000 0.000000 0.000000 17.323308 -3.724109 -0.445635 -3.335459 -15.673338 17.600315 -20.082329 -2.475355 2.985208 -34.854872 -38.198717 -26.514233 -107.251694 -20.393314 -108.353110 0.000000 0.000000 0.000000 8.727985 -3.250420 -2.338962 -8.449036 39.964489 13.067404 -24.690973 -16.912003 -10.467580 -47.124788 11.519906 20.231871 156.847330 46.310411 -139.366964 0.000000 0.000000 0.000000 
-11.234899 34.778793 -2.150110 0.000000 0.000000 0.000000 -179.922073 -68.166763 -177.212591 -109.504912 -7.336666 6.127173 70.006167 -18.138049 -0.498907 54.523720 -15.076488 -31.959258 -12.974506 -0.053179 -3.165431 0.000000 0.000000 0.000000 178.800665 -65.480156 -178.949577 -19.471129 37.178427 -2.967473 31.346836 7.637254 7.573134 -19.972002 -9.493861 5.546069 2.862303 18.810244 16.024457 0.000000 0.000000 0.000000 -175.038665 -68.271771 -172.829358 14.338030 8.968802 -0.346817 11.526191 -0.118924 -6.099440 0.217422 -0.332577 0.119720 0.000000 0.000000 0.000000 10.831259 1.992755 -5.820413 -5.626066 47.858381 21.702521 -18.938354 -34.299079 -7.593955 0.000000 0.000000 0.000000 18.633110 -3.858952 -1.044490 -2.816889 -14.715190 22.591564 -18.940038 -2.133519 2.882020 -48.605470 -39.100535 -29.988034 -104.962543 -21.222374 -106.341708 0.000000 0.000000 0.000000 10.059248 -3.221180 -2.937266 -7.723545 42.764928 10.403421 -24.282321 -17.918089 -11.504047 -53.993243 11.889499 19.410262 160.122666 48.556252 -143.312095 0.000000 0.000000 0.000000 
-11.673904 35.112228 -2.462830 0.000000 0.000000 0.000000 -178.842356 -65.244043 -174.631545 -111.526170 -4.463163 8.374954 67.284159 -17.942330 -0.780632 52.914439 -15.501213 -35.936289 -13.724798 -0.135710 -1.061937 0.000000 0.000000 0.000000 179.552614 -63.397659 -176.990282 -18.611077 39.039521 -4.679312 30.204241 8.243138 7.665667 -18.666692 -10.015690 4.878832 4.785373 20.036187 16.053984 0.000000 0.000000 0.000000 -172.708054 -66.253723 -169.542494 15.351994 8.251631 -1.921396 12.251710 -0.069945 -6.382184 0.166171 -0.382425 0.143590 0.000000 0.000000 0.000000 11.879573 1.987034 -6.374882 -5.727214 48.162515 25.645257 -14.401053 -32.863865 -2.129378 0.000000 0.000000 0.000000 19.619599 -3.931760 -1.682600 -2.417944 -13.713840 27.810147 -17.455578 -1.861459 2.710748 -62.196611 -40.100276 -35.089899 -102.651562 -22.485572 -104.092349 0.000000 0.000000 0.000000 11.264839 -3.122397 -3.431030 -6.589779 45.073928 7.467836 -24.611075 -18.988843 -12.347087 -59.799249 11.529407 17.768691 163.638410 51.459619 -147.371235 0.000000 0.000000 0.000000 
-11.955419 35.280720 -2.726997 0.000000 0.000000 0.000000 -178.079684 -62.598417 -172.420872 -112.450527 -2.718298 10.116957 65.216668 -16.892142 -1.689586 49.931514 -14.872844 -41.802687 -12.179111 -0.212288 -0.001555 0.000000 0.000000 0.000000 -179.962890 -62.233446 -175.634244 -16.640800 39.400984 -6.876836 28.956000 8.976288 7.179664 -19.352450 -9.567337 4.972213 1.565360 21.462152 14.086760 0.000000 0.000000 0.000000 -170.641362 -65.427072 -166.428638 16.305632 7.350224 -3.257883 12.765442 0.019395 -6.501062 0.220239 -0.547100 0.203961 0.000000 0.000000 0.000000 12.691367 1.998681 -6.656162 -6.146866 48.453939 29.284443 -11.380905 -31.752498 0.949918 0.000000 0.000000 0.000000 20.141232 -3.916527 -2.214497 -2.214177 -12.760857 32.672924 -15.563050 -1.797088 2.349663 -74.548953 -40.757942 -40.980657 -100.171575 -23.916198 -101.530564 0.000000 0.000000 0.000000 12.100915 -3.015292 -3.708438 -5.100657 46.519291 4.391713 -25.298027 -19.913015 -12.950104 -64.066396 10.686689 14.968701 168.463201 53.849871 -152.588953 0.000000 0.000000 0.000000 
-12.067164 35.331741 -2.876318 0.000000 0.000000 0.000000 -177.100016 -60.926162 -170.118265 -112.292374 -2.115387 10.712908 63.787246 -14.974843 -3.028185 45.841911 -13.202043 -49.466467 -9.637534 -0.500884 0.849133 0.000000 0.000000 0.000000 -178.691477 -61.892695 -173.464252 -14.273867 37.673438 -9.228579 29.288671 10.184872 5.986756 -21.190720 -8.267756 6.485858 -2.959143 23.626780 10.198659 0.000000 0.000000 0.000000 -168.363043 -66.009352 -163.202698 17.165421 6.205748 -4.266258 13.033353 0.124085 -6.389497 0.198196 -0.872769 0.267789 0.000000 0.000000 0.000000 13.179191 2.007654 -6.555327 -6.911907 48.703886 31.947848 -10.443690 -31.460831 1.288106 0.000000 0.000000 0.000000 20.197923 -3.830411 -2.544845 -2.246561 -11.703234 36.671986 -13.368919 -2.006688 2.095513 -84.434081 -41.367102 -46.746354 -97.477830 -25.240220 -98.667431 0.000000 0.000000 0.000000 12.489921 -2.956376 -3.716975 -3.646749 46.868973 1.680608 -26.199754 -21.041159 -13.329252 -66.761643 9.491129 11.076445 174.872418 54.628748 -159.303699 0.000000 0.000000 0.000000 
-12.098847 35.310661 -2.995747 0.000000 0.000000 0.000000 -175.534496 -61.074623 -167.270254 -110.999815 -2.166211 9.934431 62.338611 -11.919848 -4.585510 40.841386 -10.247008 -57.316489 -7.887356 -1.271664 2.368952 0.000000 0.000000 0.000000 -176.070023 -62.824647 -169.459493 -12.929287 34.122099 -11.218582 32.304404 11.728774 4.066869 -23.127920 -6.718232 9.307043 -4.041568 26.580388 4.948532 0.000000 0.000000 0.000000 -165.444585 -68.004942 -159.463634 17.982722 4.814664 -4.854052 13.062833 0.205310 -6.022215 0.171672 -1.232518 0.233858 0.000000 0.000000 0.000000 13.288860 1.996377 -6.072850 -7.998840 48.876489 33.055107 -11.913861 -32.353845 -1.131834 0.000000 0.000000 0.000000 19.827896 -3.688778 -2.680008 -2.581374 -10.475120 39.393632 -11.356926 -2.022617 2.072079 -91.328980 -42.466302 -51.933070 -94.694986 -26.114009 -95.572802 0.000000 0.000000 0.000000 12.419452 -2.937220 -3.492166 -2.461558 45.920321 -0.462634 -26.934969 -21.676872 -13.112186 -68.137913 8.382994 6.411242 -178.217476 53.271367 -166.462734 0.000000 0.000000 0.000000 
-12.025106 35.151447 -3.118597 0.000000 0.000000 0.000000 -172.691498 -63.386847 -163.185254 -109.161149 -2.977320 7.600713 61.519247 -8.171696 -5.697983 36.358371 -7.129280 -63.967071 -6.281759 -2.401274 4.013162 0.000000 0.000000 0.000000 -171.654170 -65.470826 -163.239008 -12.967153 29.189172 -12.506142 37.503677 13.334097 1.506442 -25.357368 -5.540935 13.045567 -3.286989 29.344511 -0.315108 0.000000 0.000000 0.000000 -160.722725 -71.519047 -154.091335 18.841676 3.140340 -4.997276 12.958894 0.277591 -5.504949 0.216259 -1.491000 0.257440 0.000000 0.000000 0.000000 13.079524 1.982975 -5.308333 -9.367629 48.817773 32.314417 -15.207572 -34.205123 -5.932895 0.000000 0.000000 0.000000 19.092901 -3.507160 -2.734229 -3.189680 -9.149378 40.730771 -9.711643 -1.611959 2.095842 -95.640468 -44.432952 -56.551914 -91.990197 -26.336899 -92.390364 0.000000 0.000000 0.000000 12.060119 -2.907069 -3.132602 -1.644435 43.690493 -1.981554 -27.270975 -22.044987 -12.305062 -68.698951 7.844446 1.523440 -172.335276 50.152098 -172.595534 0.000000 0.000000 0.000000 
-11.906020 34.863579 -3.109417 0.000000 0.000000 0.000000 -167.792312 -67.628203 -157.046444 -108.012857 -4.730165 3.680475 61.871487 -4.349884 -5.964221 33.580601 -5.389240 -68.623799 -5.270852 -3.878089 6.041252 0.000000 0.000000 0.000000 -164.764039 -69.439009 -154.289711 -13.426086 23.503443 -12.893815 43.580678 14.416528 -1.397129 -27.756743 -5.364600 16.846948 -3.436201 31.382711 -4.072508 0.000000 0.000000 0.000000 -151.221126 -76.178343 -143.748899 19.741251 1.233334 -4.900380 12.808398 0.361643 -4.980983 0.239409 -1.643371 0.227115 0.000000 0.000000 0.000000 12.614430 1.927914 -4.458445 -10.958892 48.380132 29.817249 -19.473655 -36.729957 -12.247296 0.000000 0.000000 0.000000 18.149093 -3.328692 -2.824438 -4.072231 -7.608344 40.997773 -8.507941 -1.093748 2.237722 -98.390002 -47.470522 -60.898752 -89.719760 -25.842943 -89.452870 0.000000 0.000000 0.000000 11.670160 -2.833924 -2.744407 -1.211415 40.191657 -2.937919 -27.193792 -22.365880 -10.473359 -69.094911 8.154498 -3.066885 -168.191223 46.409353 -177.093063 0.000000 0.000000 0.000000 
-11.715590 34.437275 -2.857918 0.000000 0.000000 0.000000 -158.827047 -72.913492 -146.629709 -108.051824 -7.420831 -1.572762 63.589007 -0.940780 -4.989418 32.890906 -5.258951 -70.049648 -4.767899 -5.673247 8.416505 0.000000 0.000000 0.000000 -153.144480 -74.224936 -140.685163 -14.072561 18.015140 -12.206596 48.559073 14.570955 -4.004173 -30.111777 -6.706150 19.731117 -2.730700 32.435783 -6.060903 0.000000 0.000000 0.000000 -126.926239 -80.738300 -118.069300 20.622713 -0.704358 -4.802978 12.608603 0.434024 -4.576413 0.375052 -1.671036 0.193120 0.000000 0.000000 0.000000 12.080942 1.854251 -3.705748 -12.849398 47.463849 26.219184 -24.036899 -39.679222 -19.206740 0.000000 0.000000 0.000000 16.941419 -3.109297 -3.023503 -5.127513 -5.946378 40.606164 -7.865985 -0.815127 2.847450 -100.471243 -51.232689 -64.825045 -88.136146 -24.918538 -87.099856 0.000000 0.000000 0.000000 11.325040 -2.690447 -2.404548 -0.962959 35.579268 -3.630372 -27.038798 -22.611546 -7.630657 -69.737154 9.479863 -6.707991 -165.658015 43.039279 179.868387 0.000000 0.000000 0.000000 
-11.448410 33.840645 -2.375532 0.000000 0.000000 0.000000 -140.822190 -78.199560 -127.095696 -109.127865 -10.592632 -7.525100 66.795152 1.764836 -3.010236 33.591738 -6.101521 -67.820049 -3.445859 -7.541061 10.646448 0.000000 0.000000 0.000000 -132.801035 -78.106437 -118.462009 -15.215899 13.733174 -10.654448 51.648856 13.750920 -5.841535 -32.218337 -9.794578 21.603576 0.625972 32.358455 -6.601637 0.000000 0.000000 0.000000 -75.560115 -81.209802 -64.748698 21.256307 -2.517789 -4.921344 12.300570 0.564295 -4.376800 0.427895 -1.582309 0.211424 0.000000 0.000000 0.000000 11.581189 1.823113 -3.161299 -15.157284 45.968573 22.386384 -28.168969 -42.740127 -25.793106 0.000000 0.000000 0.000000 15.578073 -2.829926 -3.284117 -6.249698 -4.164598 40.100481 -7.350218 -0.935818 3.579111 -102.282131 -55.155308 -68.164858 -87.714737 -24.081792 -85.898590 0.000000 0.000000 0.000000 11.096212 -2.464146 -2.103992 -0.843415 30.229680 -4.195262 -26.362380 -22.569245 -4.223441 -71.004761 11.500883 -8.890807 -164.442910 40.624336 177.911921 0.000000 0.000000 0.000000 
-11.195221 33.123840 -1.608450 0.000000 0.000000 0.000000 -104.886632 -81.307965 -89.667072 -110.242921 -13.910512 -13.304647 71.254596 2.875059 0.001023 34.529550 -7.602934 -63.142476 -1.933094 -9.351240 12.827847 0.000000 0.000000 0.000000 -101.127760 -80.134566 -85.378758 -16.577069 11.831486 -8.313027 52.573018 12.467511 -6.841951 -34.027067 -14.294006 23.068259 4.396708 31.421735 -5.710675 0.000000 0.000000 0.000000 -43.677550 -74.968976 -30.218154 21.531553 -3.906601 -5.382876 11.819361 0.719749 -4.337230 0.398209 -1.436262 0.147303 0.000000 0.000000 0.000000 11.136974 1.892738 -2.859021 -18.014083 43.872535 19.211131 -32.031661 -45.516107 -31.408352 0.000000 0.000000 0.000000 14.136726 -2.396791 -3.451574 -7.293993 -2.528329 39.790766 -6.169745 -1.615000 4.027380 -103.867165 -58.605653 -70.725926 -88.506869 -24.011800 -86.107245 0.000000 0.000000 0.000000 10.811735 -2.210934 -1.799838 -0.758945 24.704038 -4.726690 -25.237102 -21.650702 -0.562619 -73.082225 13.534526 -9.123119 -164.419251 39.450923 176.893034 0.000000 0.000000 0.000000 
